<svg width="2" height="3" viewBox="0 0 2 3" fill="none" xmlns="http://www.w3.org/2000/svg">
<path d="M1.00107 2.06818C0.790838 2.06818 0.61044 1.9929 0.459872 1.84233C0.309304 1.69176 0.23402 1.51136 0.23402 1.30114C0.23402 1.09091 0.309304 0.910511 0.459872 0.759943C0.61044 0.609375 0.790838 0.534091 1.00107 0.534091C1.21129 0.534091 1.39169 0.609375 1.54226 0.759943C1.69283 0.910511 1.76811 1.09091 1.76811 1.30114C1.76811 1.44034 1.7326 1.56818 1.66158 1.68466C1.59339 1.80114 1.50107 1.89489 1.38459 1.96591C1.27095 2.03409 1.14311 2.06818 1.00107 2.06818Z" fill="black"/>
<path d="M0.459872 1.84233L1.52053 0.78167L0.459872 1.84233ZM1.54226 0.759943L2.60292 -0.300716L2.60292 -0.300717L1.54226 0.759943ZM1.66158 1.68466L0.380883 0.903748L0.373865 0.915257L0.367055 0.926891L1.66158 1.68466ZM1.38459 1.96591L2.15635 3.25218L2.1655 3.2466L1.38459 1.96591ZM1.00107 0.568182C1.07915 0.568182 1.17951 0.583072 1.28579 0.627426C1.39169 0.671621 1.46991 0.731045 1.52053 0.78167L-0.600788 2.90299C-0.172986 3.33079 0.387293 3.56818 1.00107 3.56818V0.568182ZM1.52053 0.78167C1.57116 0.832294 1.63058 0.910507 1.67478 1.01641C1.71913 1.12269 1.73402 1.22305 1.73402 1.30114H-1.26598C-1.26598 1.91491 -1.02859 2.47519 -0.600788 2.90299L1.52053 0.78167ZM1.73402 1.30114C1.73402 1.37922 1.71913 1.47958 1.67478 1.58587C1.63058 1.69177 1.57116 1.76998 1.52053 1.8206L-0.600788 -0.300717C-1.02859 0.127085 -1.26598 0.687364 -1.26598 1.30114H1.73402ZM1.52053 1.8206C1.46991 1.87123 1.39169 1.93065 1.28579 1.97485C1.17951 2.0192 1.07915 2.03409 1.00107 2.03409V-0.965909C0.387293 -0.965909 -0.172986 -0.728518 -0.600788 -0.300717L1.52053 1.8206ZM1.00107 2.03409C0.922981 2.03409 0.82262 2.0192 0.716337 1.97485C0.610436 1.93065 0.532223 1.87123 0.481599 1.8206L2.60292 -0.300717C2.17512 -0.728518 1.61484 -0.965909 1.00107 -0.965909V2.03409ZM0.481598 1.8206C0.430973 1.76998 0.37155 1.69177 0.327355 1.58586C0.283001 1.47958 0.268111 1.37922 0.268111 1.30114H3.26811C3.26811 0.687364 3.03072 0.127085 2.60292 -0.300716L0.481598 1.8206ZM0.268111 1.30114C0.268111 1.17075 0.305426 1.0275 0.380883 0.903748L2.94227 2.46557C3.15977 2.10887 3.26811 1.70993 3.26811 1.30114H0.268111ZM0.367055 0.926891C0.425605 0.826867 0.510731 0.74189 0.603677 0.685215L2.1655 3.2466C2.4914 3.04788 2.76118 2.77541 2.9561 2.44243L0.367055 0.926891ZM0.612845 0.679669C0.749131 0.597898 0.891529 0.568182 1.00107 0.568182V3.56818C1.39469 3.56818 1.79277 3.47028 2.15633 3.25215L0.612845 0.679669Z" fill="black"/>
</svg>
